<svg width="160" height="214" viewBox="0 0 160 214" fill="none" xmlns="http://www.w3.org/2000/svg">
<path d="M62.5683 148.429L72.5899 200.924H85.9457L100.438 146.364" stroke="#171714" stroke-width="2" stroke-miterlimit="10"/>
<path d="M99.0174 190.107L115.461 141.742L45.291 143.807L48.019 152.787L65.0311 204.524" stroke="#171714" stroke-width="2" stroke-miterlimit="10"/>
<path d="M98.0322 213.92C98.5437 212.385 99.0552 210.851 99.5667 209.335C100.249 207.289 102.465 194.331 102.844 189.879C102.011 189.86 101.196 189.823 100.362 189.785C99.3583 189.898 98.2975 189.823 97.2366 189.671C83.7861 189.197 70.3355 188.667 56.885 188.705C57.8322 196.605 57.9838 204.789 60.4277 212.84C60.5982 213.408 88.2759 213.333 98.0512 213.901L98.0322 213.92Z" fill="#1D6FAB"/>
<path d="M79.5612 0C0.0326647 0 -6.52215 54.4462 3.72676 90.9709C10.3194 114.5 30.4005 140.7 48.6629 157.182H111.293C129.252 140.7 148.386 114.5 155.452 90.9709C166.383 54.5219 160.927 0 79.5612 0Z" fill="#FFCB0F"/>
<path d="M79.6753 0C34.1898 0 30.4388 54.4462 36.2926 90.9709C40.0625 114.5 51.5428 140.7 62.0001 157.182H97.824C108.092 140.7 119.042 114.5 123.077 90.9709C129.328 54.5219 126.203 0 79.6753 0Z" fill="#F64E33"/>
<path d="M79.7697 0C62.0189 0 60.5601 54.4462 62.8335 90.9709C64.3111 114.5 68.7821 140.7 72.8551 157.182H86.836C90.8522 140.7 95.1147 114.5 96.6871 90.9709C99.1309 54.5219 97.8995 0 79.7508 0H79.7697Z" fill="#00C2CD"/>
<path d="M110.952 156.405L47.4879 155.723C45.0631 155.704 45.4798 159.455 47.9047 159.493C69.0655 159.72 90.2075 159.947 111.368 160.175C113.793 160.194 113.377 156.443 110.952 156.405Z" fill="#171714"/>
<path d="M136.943 67.8207C135.901 67.7071 134.973 68.3701 134.784 69.4121C134.462 71.2686 134.121 73.1252 133.799 74.9817C133.628 75.9668 134.386 77.0277 135.39 77.1414C136.432 77.255 137.36 76.592 137.55 75.5501C137.872 73.6935 138.213 71.837 138.535 69.9804C138.705 68.9953 137.947 67.9344 136.943 67.8207Z" fill="black"/>
<path d="M148.405 62.914C147.476 62.7814 146.302 63.4824 146.245 64.5054C145.999 69.3741 145.241 74.1859 143.972 78.9031C143.707 79.8882 144.635 80.9112 145.563 81.0627C146.662 81.2332 147.457 80.4565 147.723 79.4714C148.992 74.7732 149.75 69.9424 149.996 65.0737C150.053 64.0507 149.485 63.0845 148.405 62.914Z" fill="black"/>
<path d="M148.557 86.5382C142.874 98.8331 135.542 110.257 126.733 120.524C125.142 122.381 128.078 124.787 129.669 122.93C138.687 112.397 146.227 100.652 152.024 88.0727C153.047 85.8562 149.58 84.3217 148.557 86.5382Z" fill="black"/>
<path d="M22.5387 106.032C18.0489 95.1006 14.7337 83.734 12.7066 72.1021C12.2898 69.7151 8.5198 70.113 8.93657 72.5189C11.0205 84.4728 14.3926 96.1615 18.996 107.396C19.9243 109.65 23.467 108.305 22.5387 106.032Z" fill="black"/>
<path d="M23.7322 84.2076C23.4101 82.7868 23.0692 81.366 22.7471 79.9641C22.6335 79.4715 22.482 79.0548 22.0652 78.7138C21.7052 78.4107 21.1179 78.2212 20.6632 78.297C20.1896 78.3728 19.6971 78.5811 19.4129 78.979C19.1288 79.3579 18.8824 79.9073 18.9961 80.3809C19.3181 81.8017 19.6592 83.2225 19.9812 84.6244C20.0949 85.117 20.2464 85.5337 20.6632 85.8747C21.0231 86.1778 21.6105 86.3673 22.0652 86.2915C22.5388 86.2157 23.0313 86.0073 23.3155 85.6095C23.5996 85.2306 23.8458 84.6812 23.7322 84.2076Z" fill="black"/>
<path d="M49.2694 75.0578C49.2315 74.0348 48.1516 73.277 47.1854 73.3907C46.1056 73.5044 45.4615 74.4516 45.5183 75.4746C45.7078 80.0781 46.1435 84.6626 46.8255 89.2092C46.9771 90.2133 47.8675 91.009 48.9094 90.8763C49.8946 90.7627 50.7471 89.7965 50.5766 88.7925C49.8756 84.2458 49.4399 79.6613 49.2694 75.0578Z" fill="black"/>
<path d="M57.1121 76.043C56.9606 75.0579 56.0701 74.2054 55.0282 74.3759C54.062 74.5274 53.1906 75.4178 53.3611 76.4597C53.6831 78.5247 54.0241 80.6086 54.3462 82.6735C54.4978 83.6586 55.3881 84.5111 56.43 84.3406C57.3962 84.1891 58.2677 83.2987 58.0972 82.2567L57.1121 76.043Z" fill="black"/>
<path d="M81.6076 104.82C81.5319 102.376 77.7618 102.811 77.8376 105.236C78.1597 114.576 77.7619 123.934 76.6442 133.217C76.36 135.623 80.0921 136.21 80.3952 133.785C81.5508 124.181 81.9486 114.5 81.6076 104.838V104.82Z" fill="black"/>
<path d="M91.1555 109.688C90.1515 109.537 89.1285 110.256 88.9958 111.279C88.4275 115.637 87.8592 119.994 87.2909 124.351C87.1583 125.374 87.8592 126.359 88.8822 126.511C89.8862 126.662 90.9093 125.942 91.0419 124.919C91.6102 120.562 92.1786 116.205 92.7469 111.848C92.8795 110.825 92.1785 109.84 91.1555 109.688Z" fill="black"/>
<path d="M44.0407 7.72924C37.4102 12.0296 30.6281 16.5194 25.9678 23.0363C25.3805 23.8699 25.3994 25.0255 26.2329 25.7075C26.9907 26.3326 28.2979 26.2758 28.9041 25.4422C33.375 19.1717 39.8918 14.9281 46.2572 10.7982C48.3031 9.47212 46.0867 6.40314 44.0407 7.72924Z" fill="black"/>
<path d="M54.6873 11.3854C53.6832 10.9875 52.6602 11.3854 52.1866 12.3515C51.8835 12.9577 51.5614 13.545 51.2394 14.1323C51.0689 14.4354 50.8983 14.7196 50.7278 15.0037C50.6331 15.1553 50.5574 15.2879 50.4627 15.4395L50.4248 15.5152C49.7238 16.633 48.985 17.7317 48.1893 18.7926C47.6021 19.5883 47.6021 20.8197 48.4546 21.4638C49.2503 22.051 50.4816 22.051 51.1257 21.1986C52.8307 18.9063 54.3463 16.4435 55.6534 13.905C56.1081 13.0146 55.6155 11.7643 54.6873 11.4043V11.3854Z" fill="black"/>
<path d="M126.146 14.5494C122.963 11.4425 118.758 9.39649 114.363 8.71449C113.377 8.56294 112.317 9.28282 112.203 10.3058C112.089 11.3288 112.752 12.295 113.794 12.4655C114.287 12.5413 114.798 12.636 115.291 12.7496C115.518 12.8065 115.745 12.8633 115.992 12.9201L116.181 12.977L116.352 13.0338C117.318 13.3369 118.265 13.7348 119.156 14.1894C119.591 14.3978 119.989 14.6441 120.406 14.8714H120.425C120.519 14.9472 120.633 15.004 120.728 15.0798C120.955 15.2314 121.183 15.3829 121.391 15.5345C122.224 16.1217 122.982 16.7848 123.721 17.4857C124.422 18.1867 125.805 17.9972 126.392 17.2205C127.055 16.3301 126.885 15.2882 126.127 14.5494H126.146Z" fill="black"/>
<path d="M99.4909 18.7546C97.066 18.7546 97.4827 22.5246 99.9076 22.5246C102.332 22.5246 101.916 18.7546 99.4909 18.7546Z" fill="black"/>
<path d="M96.876 196.586C96.7055 196.15 96.3265 195.714 95.8718 195.525C94.9625 195.165 93.7501 195.487 93.3712 196.491C92.7271 198.215 92.3293 200.034 92.2725 201.89C92.2725 202.402 92.2914 202.838 92.6135 203.273C92.8787 203.652 93.3901 203.993 93.8637 204.05C94.3374 204.107 94.8678 204.012 95.2467 203.709C95.6255 203.425 96.0045 202.951 96.0234 202.459C96.0424 201.208 96.2507 199.977 96.5728 198.765C96.6486 198.518 96.7243 198.272 96.8191 198.026C96.9896 197.552 97.0464 197.06 96.857 196.567L96.876 196.586Z" fill="#FFCB0F"/>
<path d="M85.8886 195.09C85.7749 194.597 85.6234 194.161 85.2066 193.839C84.8467 193.536 84.2594 193.347 83.8048 193.422C83.3311 193.498 82.8386 193.707 82.5545 194.104C82.2703 194.483 82.024 195.033 82.1376 195.506C82.3271 196.378 82.4029 197.249 82.4029 198.14C82.365 198.841 82.2892 199.56 82.1376 200.242C82.0429 200.697 82.2134 201.265 82.4786 201.625C82.7438 202.004 83.2554 202.345 83.729 202.402C84.8088 202.516 85.6613 201.853 85.8886 200.811C86.3054 198.954 86.3054 196.946 85.8886 195.09Z" fill="#FFCB0F"/>
<path d="M74.4277 196.074C74.3519 195.582 74.1436 195.146 73.7457 194.824C73.3858 194.521 72.7985 194.331 72.3439 194.407C71.3777 194.559 70.4873 195.449 70.6767 196.491C70.9799 198.348 71.3019 200.204 71.605 202.061C71.6808 202.553 71.8891 202.989 72.287 203.311C72.6469 203.614 73.2343 203.804 73.689 203.728C74.6551 203.576 75.5454 202.686 75.3559 201.644C75.0528 199.787 74.7308 197.931 74.4277 196.074Z" fill="#FFCB0F"/>
<path d="M66.1487 201.17C65.4857 199.427 64.8416 197.685 64.1786 195.942C63.8376 195.013 62.6629 194.445 61.7347 194.843C60.7874 195.26 60.276 196.302 60.636 197.287C61.299 199.03 61.9431 200.772 62.6061 202.515C62.9471 203.444 64.1216 204.012 65.0499 203.614C65.9971 203.197 66.5087 202.155 66.1487 201.17Z" fill="#FFCB0F"/>
</svg>
