<svg width="157" height="113" viewBox="0 0 157 113" fill="none" xmlns="http://www.w3.org/2000/svg">
<path d="M40.6589 124.69C40.634 123.628 40.6589 122.553 40.7214 121.503C41.8835 98.7735 49.9058 71.7201 77.3965 66.9967C90.4046 64.76 105.362 70.0832 112.097 80.942C118.258 90.8637 116.908 103.097 113.797 113.918C112.36 118.904 110.585 123.852 107.799 128.276C102.376 136.911 94.8407 144.645 83.8819 145.945C72.4107 147.307 60.2648 144.97 50.2432 139.16C47.1067 137.335 44.0703 135.099 42.3834 132.037C41.1213 129.763 40.7214 127.226 40.6464 124.677L40.6589 124.69Z" fill="#57B4F7"/>
<path d="M130.079 90.4641C133.191 91.6512 136.402 92.6383 139.689 93.4131C150.797 96.0372 159.082 108.258 151.085 117.892C146.199 123.778 136.802 125.24 128.955 122.991C116.047 119.279 106.037 105.247 98.9649 95.0875C94.304 88.4023 91.2175 80.28 93.0294 72.6701C93.5667 70.4209 94.9912 67.9467 97.4779 67.7843C99.9271 67.6343 101.801 69.7836 103.313 71.6205C110.311 80.1301 119.633 86.453 130.079 90.4641Z" fill="#57B4F7"/>
<path d="M133.028 96.1741C134.103 95.8367 135.215 95.5618 136.314 95.3493C142.962 94.0998 148.698 96.4989 151.834 102.247C154.533 107.183 154.696 113.518 151.059 117.892C145.499 124.602 128.167 127.813 123.394 117.942C121.132 113.281 120.57 107.708 123.106 103.322C125.143 99.7978 128.892 97.4861 133.028 96.1741Z" fill="#77E6AC"/>
<path d="M53.73 74.7314C53.6676 74.7314 53.5926 74.7438 53.5301 74.7563C47.0073 75.3811 40.4845 73.2943 33.9992 72.0698C27.5638 70.8577 19.9539 70.1079 15.8303 75.4936C12.7064 79.5672 11.7817 85.0529 13.4062 89.9512C15.1556 95.2369 20.1664 100.348 26.1394 101.435C33.1995 102.709 40.597 101.885 47.0948 99.348C58.5159 94.912 67.213 86.115 74.423 76.8306C75.8601 74.9688 81.2832 66.909 75.1477 67.4213C71.8988 67.6962 68.4126 69.6081 65.601 70.9576C61.8898 72.7445 57.9536 74.294 53.73 74.7314Z" fill="#57B4F7"/>
<path d="M12.419 79.3051C10.5821 84.0535 11.1569 90.0514 13.8185 94.3C16.5676 98.6985 22.0407 101.523 27.2889 100.898C32.0998 100.323 36.2859 96.9491 38.1103 92.6381C39.9347 88.327 39.4973 83.2662 37.373 79.0302C34.8364 73.9819 30.6503 70.3831 24.4774 70.683C20.3912 70.8829 16.5176 72.9822 14.1434 76.1561C13.4311 77.1058 12.8563 78.168 12.419 79.2926V79.3051Z" fill="#77E6AC"/>
<path d="M129.741 115.318C131.228 118.304 134.902 120.416 138.838 120.216C146.261 119.829 151.321 114.393 150.409 107.558C149.959 104.159 146.436 102.022 142.937 101.972C140.225 101.935 137.651 102.934 135.364 104.221C133.165 105.459 131.103 107.033 129.929 109.17C128.742 111.332 128.829 113.481 129.741 115.318Z" fill="#FF7C69"/>
<path d="M19.3915 76.2561C17.967 77.2308 16.8924 78.7178 16.3551 80.3172C14.9306 84.4908 15.5054 90.1889 19.5415 93.1753C23.815 96.3243 31.0002 94.5124 32.8121 89.839C33.7867 87.3273 33.1245 84.4658 31.9499 81.9666C31.1001 80.1298 29.9505 78.3554 28.3135 77.0433C26.6766 75.7187 24.5023 74.894 22.3906 75.1314C21.2784 75.2564 20.2663 75.6688 19.3791 76.2686L19.3915 76.2561Z" fill="#FF7C69"/>
<path d="M127.355 18.838C129.767 15.4267 133.853 12.965 138.826 12.6276C144.187 12.2653 149.848 14.602 153.159 18.5506C158.757 25.2109 156.745 35.4324 149.798 40.0809C147.061 41.9177 143.437 42.8299 139.938 42.2426C136.24 41.6304 132.991 39.4436 130.442 36.8945C128.23 34.6827 126.406 32.1086 125.531 29.297C124.394 25.6357 125.193 21.912 127.355 18.838Z" fill="#57B4F7"/>
<path d="M53.4302 6.0049C55.6545 2.756 59.3906 0.394274 63.9141 0.0443919C68.8 -0.342977 73.9358 1.83131 76.9222 5.53005C81.958 11.7779 80.0587 21.4622 73.6983 25.9107C71.1867 27.6601 67.8878 28.5598 64.7013 28.035C61.3275 27.4851 58.391 25.4358 56.0917 23.0491C54.0924 20.9748 52.4555 18.5506 51.6808 15.9015C50.6686 12.4527 51.4309 8.92891 53.4302 6.0049Z" fill="#57B4F7"/>
<path d="M74.8732 7.64206C68.7753 10.741 63.4146 15.0895 59.3909 20.5627C51.5311 31.2716 50.0816 46.3414 57.3666 57.8376C66.601 72.4076 86.5318 81.7045 104.251 80.8548C120.183 80.08 134.865 70.1709 140.426 56.438C145.999 42.7052 142.163 25.8484 130.979 14.9021C115.909 0.14459 92.3548 -1.25493 74.8482 7.64206H74.8732Z" fill="#57B4F7"/>
<path d="M87.0314 38.9559C83.4951 39.0309 79.8963 39.5807 76.8723 41.2051C73.8483 42.8296 71.4742 45.6911 71.2368 48.965C71.0119 52.114 72.7862 55.2504 75.3229 57.4372C77.8595 59.6364 81.0834 60.9984 84.3323 62.0481C87.4438 63.0477 90.6427 63.7725 93.8541 64.3348C98.5275 65.1471 103.388 65.5719 107.887 64.3723C112.385 63.1727 116.471 60.0488 117.459 55.7877C117.771 54.4757 117.771 53.0637 117.271 51.7766C116.534 49.8897 114.834 48.4652 113.198 47.1282C106.15 41.3801 96.2158 38.756 87.0314 38.9559Z" fill="#E6F5F9"/>
<path d="M96.1651 48.6158C96.1151 48.4909 95.9277 48.6409 95.9028 48.7658C95.5654 50.2278 95.3279 51.7398 94.5282 53.0269C93.7409 54.314 92.2415 55.3386 90.6295 55.1386C89.9422 55.0512 89.2925 54.7388 88.7177 54.3639C87.9429 53.8391 87.2681 53.1518 86.8933 52.3271C86.5309 51.5024 86.5059 50.5402 86.9432 49.778" stroke="black" stroke-width="2" stroke-miterlimit="10" stroke-linecap="round"/>
<path d="M127.255 48.0532C128.63 45.4166 129.705 40.7182 127.605 38.0191C126.743 36.907 125.318 36.2947 123.894 35.9573C120.807 35.2201 117.984 36.0573 116.147 38.419C115.06 39.8185 114.472 41.5179 114.11 43.2174" stroke="black" stroke-width="2" stroke-miterlimit="10" stroke-linecap="round"/>
<path d="M69.0002 35.8321C69.1502 33.9953 69.5876 32.1834 70.2873 30.4714C71.6869 27.0351 76.1604 25.5731 79.8966 25.973C81.2711 26.1229 82.6707 26.4603 83.8078 27.2225C86.9942 29.3218 86.6568 34.1827 84.5325 36.6818" stroke="black" stroke-width="2" stroke-miterlimit="10" stroke-linecap="round"/>
<path d="M96.5659 49.2153C96.0911 50.3774 95.8037 51.6145 95.7287 52.8641C95.6787 53.5889 95.7287 54.3636 96.166 54.9759C96.8033 55.8631 98.0654 56.138 99.1901 56.2005C99.8523 56.238 100.527 56.2255 101.152 56.038C101.777 55.8506 102.339 55.4632 102.614 54.9009" stroke="black" stroke-width="2" stroke-miterlimit="10" stroke-linecap="round"/>
<path d="M100.952 42.8295C98.5273 41.1426 95.3909 41.2426 92.7918 42.3797C90.7425 43.2669 90.3051 46.0284 91.3298 47.8028C92.7793 50.302 96.4031 50.9643 99.3521 50.4395C100.352 50.2645 101.376 49.9646 102.114 49.3273C104.05 47.6654 103.126 44.3415 100.939 42.8295H100.952Z" fill="#FF7C69"/>
<path d="M147.361 28.3978C147.273 26.9108 146.299 25.5363 144.999 24.6241C143.712 23.7119 142.125 23.2246 140.55 22.9622C139.313 22.7497 138.014 22.6998 136.802 22.8997C137.876 25.2239 138.751 27.6231 139.926 29.9098C140.201 30.4097 140.463 30.9095 140.725 31.4093C141.288 32.384 141.788 33.3712 142.225 34.3958C143.537 33.9335 144.724 33.2212 145.661 32.259C146.698 31.2094 147.448 29.8473 147.361 28.3978Z" fill="#FF7C69"/>
<path d="M60.3904 18.1756C60.4154 18.413 59.9906 18.2381 59.9031 18.0131C59.1908 16.4137 58.8284 14.6393 59.1908 12.9773C59.5782 11.178 60.8152 9.591 62.5147 8.6913C64.2141 7.79161 66.3509 7.61666 68.2503 8.21646C69.3874 8.57883 70.462 9.22861 71.1368 10.1658" fill="#FF7C69"/>
<path d="M7.64532 153.705C4.57136 148.994 2.60955 143.708 2.12221 138.298C1.89729 135.798 1.95974 133.249 2.79696 130.913C4.65883 125.652 11.2441 120.416 16.9796 119.104C21.0782 118.167 25.3643 118.392 29.3879 117.142C33.8614 115.743 38.0225 113.419 41.5088 110.52C44.9952 110.682 48.1566 112.706 50.6058 115.08C60.1776 124.352 59.7277 136.923 54.492 147.557C50.006 156.666 38.7348 169.125 26.289 167.075C21.5406 166.288 17.9918 164.689 14.6055 161.702C11.9189 159.34 9.56968 156.629 7.65783 153.692L7.64532 153.705Z" fill="#57B4F7"/>
<path opacity="0.47" d="M64.0017 98.4359C62.1523 100.073 60.6029 101.51 59.2533 103.922C56.6292 108.632 55.5046 114.118 56.2793 119.479C57.4289 127.426 62.9021 135.648 72.0115 137.098C78.1095 138.072 85.2196 137.435 89.6556 132.774C91.9548 130.35 93.5542 127.351 94.8663 124.29C96.6032 120.228 97.9027 115.992 98.7399 111.656C99.2398 109.057 99.5647 106.346 98.9149 103.772C98.0652 100.398 95.641 97.6236 92.9294 95.4369C90.1054 93.1626 86.8565 91.3383 83.3327 90.4886C79.8089 89.6388 75.9852 89.8138 72.6738 91.3258C69.4998 92.7753 67.538 95.2869 65.0139 97.5362C64.664 97.8486 64.3266 98.1485 64.0017 98.4359Z" fill="#E6F5F9"/>
<path d="M94.2163 88.6019C91.6922 87.5773 89.0681 86.99 86.419 86.4902C87.3811 83.7661 88.4183 81.0795 89.493 78.4054C88.7057 78.168 87.906 77.8806 87.1312 77.5557C86.0066 80.3672 84.9445 83.1913 83.9448 86.0403C81.6831 85.6404 79.4339 85.2406 77.2221 84.6408C76.5723 84.4658 75.885 85.0781 75.7976 85.6904C75.6851 86.4277 76.185 86.9275 76.8472 87.115C78.909 87.6773 81.0208 88.0521 83.1326 88.4145C81.7331 92.5881 80.471 96.7992 79.2839 101.035C77.5345 100.61 75.7851 100.223 74.0107 99.9106C72.4237 99.6357 72.0489 102.11 73.6358 102.385C75.3103 102.685 76.9722 103.047 78.6216 103.447C77.597 107.258 76.6473 111.082 75.7226 114.918C73.2484 114.631 70.7368 114.493 68.3376 113.843C67.6878 113.668 67.0131 114.281 66.9131 114.893C66.8006 115.618 67.3129 116.143 67.9627 116.318C70.2869 116.942 72.7486 117.055 75.1603 117.33C74.4855 120.179 73.8482 123.04 73.2109 125.902C71.0617 125.377 68.8999 124.915 66.7256 124.527C65.1387 124.252 64.7638 126.727 66.3508 127.001C68.4626 127.376 70.5743 127.814 72.6611 128.326C71.674 132.775 70.6868 137.223 69.6996 141.659C68.2251 148.307 66.6882 154.942 64.9763 161.54C64.5764 163.089 67.0505 163.464 67.4504 161.915C70.2744 151.006 72.5987 139.96 75.0353 128.938C76.7348 129.401 78.4342 129.888 80.1086 130.45C80.7459 130.663 81.4707 130.475 81.7581 129.813C82.008 129.238 81.7581 128.376 81.1208 128.164C79.2839 127.551 77.4345 127.014 75.5727 126.514C76.2224 123.565 76.8972 120.629 77.5845 117.692C78.884 117.942 80.1586 118.292 81.3707 118.879C82.8202 119.591 83.8324 117.305 82.3829 116.592C81.0208 115.93 79.6088 115.543 78.1593 115.28C79.059 111.532 79.9837 107.783 80.9959 104.059C82.7578 104.547 84.5196 105.084 86.244 105.709C86.8813 105.934 87.6061 105.721 87.8935 105.071C88.1559 104.484 87.8935 103.647 87.2562 103.422C85.4068 102.76 83.5324 102.185 81.6456 101.66C82.5078 98.5611 83.42 95.4746 84.4072 92.4006C84.782 91.2135 85.1819 90.039 85.5818 88.8519C88.1684 89.3267 90.7301 89.889 93.1792 90.8762C94.6662 91.476 95.6909 89.2017 94.1914 88.5895L94.2163 88.6019Z" fill="#E6F5F9"/>
<path d="M143.887 42.8679C143.824 42.6929 143.787 42.5305 143.737 42.3556C143.612 41.8057 143.55 41.2309 143.55 40.6686C143.562 40.3062 143.599 39.9564 143.662 39.594C143.774 38.9442 143.275 38.2444 142.612 38.1695C141.925 38.0945 141.313 38.5318 141.188 39.2191C140.913 40.7436 141.063 42.3056 141.563 43.7676C141.775 44.3924 142.575 44.7547 143.175 44.4923C143.812 44.2174 144.124 43.5426 143.899 42.8804L143.887 42.8679Z" fill="black"/>
<path d="M135.252 119.229C135.252 119.229 135.202 119.216 135.177 119.204C135.115 119.179 135.027 119.154 134.965 119.141C134.802 119.091 134.652 119.029 134.502 118.954C134.352 118.892 134.203 118.816 134.053 118.729C133.99 118.692 133.865 118.654 133.815 118.592C133.953 118.679 133.99 118.704 133.903 118.654C133.865 118.629 133.828 118.604 133.79 118.579C133.503 118.379 133.228 118.167 132.965 117.929C132.853 117.829 132.703 117.717 132.603 117.579L132.578 117.542C132.516 117.467 132.466 117.404 132.403 117.33C132.191 117.067 132.003 116.792 131.828 116.505C131.791 116.442 131.741 116.367 131.716 116.292L131.678 116.217C131.603 116.055 131.529 115.88 131.454 115.718C131.391 115.568 131.341 115.405 131.291 115.243C131.266 115.168 131.254 115.093 131.229 115.03V115.005C131.229 115.005 131.229 115.005 131.229 114.98C131.154 114.618 131.104 114.256 131.091 113.893C131.066 113.243 130.354 112.694 129.717 112.794C129.017 112.906 128.579 113.468 128.617 114.168C128.767 117.742 131.491 120.816 134.902 121.678C135.54 121.841 136.252 121.253 136.327 120.628C136.402 119.904 135.965 119.379 135.277 119.204L135.252 119.229Z" fill="black"/>
<path d="M76.5973 75.6941C75.7226 74.9193 74.8979 74.1321 74.0731 73.3448C73.9607 72.845 73.5983 72.3952 72.9985 72.2952C71.7365 71.0206 70.5244 69.6961 69.3498 68.309C68.9249 67.8092 68.1627 67.5843 67.6003 68.0217C67.1005 68.409 66.8631 69.2337 67.313 69.7711C69.6872 72.5701 72.2487 75.2067 74.9978 77.6309C75.4852 78.0682 76.3599 77.9808 76.7598 77.456C77.1721 76.8937 77.1096 76.1564 76.5848 75.6941H76.5973Z" fill="black"/>
</svg>
