<svg width="173" height="124" viewBox="0 0 173 124" fill="none" xmlns="http://www.w3.org/2000/svg">
<path d="M47.6469 15.9486C51.095 11.859 55.3361 8.38845 60.2324 5.89554C72.68 -0.442623 95.1271 -1.32246 105.678 9.36606C113.54 17.3173 113.867 36.3318 113.005 46.2708C119.109 39.6394 127.384 34.5232 136.59 33.2523C145.797 31.9814 155.848 35.0283 161.555 41.9693C169.589 51.7454 166.606 61.7659 155.882 68.4299C163.537 67.2079 171.123 73.5461 172.123 80.8293C173.123 88.1125 168.571 95.412 162.089 99.4527C155.607 103.494 147.521 104.683 139.763 104.357C129.953 103.95 119.453 100.74 114.143 92.9191C110.971 108.349 94.0237 120.048 77.5074 118.207C60.991 116.365 47.3883 101.261 48.1124 85.5544C36.7509 97.7419 12.9246 95.9496 3.75268 82.1979C-5.41924 68.4462 3.11479 47.3625 19.6656 42.9306C26.8721 40.9917 36.2509 42.9306 38.837 49.5947C36.1992 37.8797 39.837 25.2848 47.6814 15.9323L47.6469 15.9486Z" fill="#77E6AC"/>
<path d="M49.2847 58.9633C48.9398 54.2056 53.0776 50.5559 57.629 49.2524C63.8356 47.4927 69.6629 54.0101 64.9735 59.1263" stroke="#1B0512" stroke-width="2" stroke-miterlimit="10" stroke-linecap="round"/>
<path d="M124.091 72.2587C123.35 69.4074 125.66 66.5886 128.315 65.0896C131.229 63.444 135.297 62.9063 137.78 65.0896C140.211 67.224 140.039 70.8412 139.694 73.9533" stroke="#1B0512" stroke-width="2" stroke-miterlimit="10" stroke-linecap="round"/>
<path d="M89.3516 67.1262C92.317 68.3971 95.6099 68.9674 98.8511 68.7719" stroke="#1B0512" stroke-width="2" stroke-miterlimit="10" stroke-linecap="round"/>
<path d="M164.227 80.9106C163.365 80.7803 162.313 81.3995 162.261 82.2793C162.072 85.1958 160.537 87.8843 158.176 89.758C155.555 91.8273 152.279 92.9027 148.935 93.3426C146.745 93.6196 147.107 96.862 149.314 96.585C153.279 96.0799 157.296 94.7764 160.365 92.2672C163.296 89.8721 165.434 86.483 165.675 82.7681C165.727 81.8883 165.21 81.0573 164.227 80.9106Z" fill="white"/>
<path d="M73.9557 104.992C71.0076 102.19 69.3698 98.2307 69.3698 94.1899C69.3698 93.31 68.3181 92.6583 67.4733 92.7561C66.4734 92.8538 65.9389 93.6685 65.9562 94.5483C65.9562 99.4201 68.1629 104.08 71.7834 107.518C72.4386 108.137 73.6626 107.925 74.2143 107.29C74.8522 106.557 74.6281 105.628 73.973 104.992H73.9557Z" fill="white"/>
<path d="M80.9039 102.06C80.697 101.212 80.5074 100.365 80.3005 99.5341C80.3005 99.3223 80.2143 99.1268 80.0936 98.9476C80.0074 98.752 79.8695 98.5891 79.6798 98.4588C79.3523 98.1981 78.8178 98.0351 78.404 98.1003C77.973 98.1655 77.5248 98.3447 77.2662 98.6869C77.0076 99.0127 76.7834 99.4853 76.8869 99.8926C77.0938 100.74 77.2834 101.587 77.4903 102.418C77.5075 102.63 77.5765 102.825 77.6972 103.005C77.7834 103.2 77.9213 103.363 78.111 103.493C78.4385 103.754 78.973 103.917 79.3867 103.852C79.8178 103.787 80.266 103.608 80.5246 103.265C80.7832 102.939 81.0073 102.467 80.9039 102.043V102.06Z" fill="white"/>
<path d="M93.2999 104.748C93.2309 104.536 93.1102 104.373 92.9378 104.227C92.7999 104.047 92.6103 103.933 92.3861 103.836C91.9724 103.689 91.4896 103.624 91.0586 103.803L90.6621 103.998C90.4035 104.178 90.2138 104.389 90.0932 104.666C89.6966 105.318 89.3001 105.986 88.9036 106.638C88.8001 106.834 88.7484 107.045 88.7657 107.273C88.7484 107.485 88.7656 107.697 88.8691 107.893C88.9381 108.104 89.0587 108.267 89.2311 108.414C89.3691 108.593 89.5587 108.707 89.7828 108.805C90.1966 108.952 90.6793 109.017 91.1104 108.838L91.5069 108.642C91.7655 108.463 91.9551 108.251 92.0758 107.974L93.2654 106.003C93.3689 105.807 93.4206 105.595 93.4033 105.367C93.4206 105.155 93.4033 104.943 93.2999 104.748Z" fill="white"/>
<path d="M103.265 22.694C102.334 22.5962 101.454 23.1665 101.299 24.0626C100.903 26.4089 100.506 28.7551 100.11 31.1014C99.9716 31.9487 100.644 32.8611 101.558 32.9589C102.489 33.0566 103.368 32.4864 103.523 31.5902C103.92 29.244 104.316 26.8977 104.713 24.5514C104.851 23.7042 104.178 22.7917 103.265 22.694Z" fill="white"/>
<path d="M62.7149 15.3947C54.8532 20.462 48.7328 27.843 45.4916 36.3156C44.7331 38.2708 47.8881 39.6231 48.6466 37.6353C51.6982 29.6678 57.3186 22.8083 64.732 18.0343C66.5767 16.8449 64.5596 14.2053 62.7149 15.3947Z" fill="white"/>
<path d="M69.8699 19.6798C69.1458 19.1584 68.0251 19.1747 67.439 19.9079C65.5942 22.1727 63.9391 24.5515 62.4392 27.0281C61.991 27.7776 62.5082 28.8856 63.3185 29.1788C64.2667 29.521 65.1115 29.1463 65.5942 28.3479C65.7666 28.0546 65.9563 27.7613 66.1287 27.468C66.2149 27.3214 66.3183 27.1747 66.4045 27.0281C66.4563 26.9629 66.7493 26.4578 66.508 26.8652C66.8528 26.2949 67.2493 25.7572 67.6286 25.2195C68.4044 24.1116 69.232 23.0362 70.094 21.9771C70.6457 21.3091 70.6112 20.2174 69.8526 19.6798H69.8699Z" fill="white"/>
<path d="M15.4074 80.7476C13.011 77.8148 10.6318 74.6865 11.0628 70.7923C11.4938 66.9471 13.511 63.4277 14.4937 59.7128C15.0281 57.6761 11.6145 57.2036 11.08 59.2239C9.9939 63.3136 7.70092 67.1263 7.58024 71.4115C7.45956 75.7618 9.89047 79.3138 12.5972 82.6377C13.9592 84.2996 16.7522 82.3933 15.3902 80.7313L15.4074 80.7476Z" fill="white"/>
<path d="M139.694 80.7478C137.918 79.6398 135.66 79.5258 133.591 79.4932C132.418 79.4769 131.246 79.5421 130.074 79.6724C128.988 79.7865 127.867 79.9005 126.901 80.4219C125.901 80.9759 125.281 82.0024 125.384 83.1103C125.419 83.3873 125.488 83.648 125.591 83.8924C125.436 84.5767 125.591 85.2937 126.091 85.8802C127.263 87.2163 129.35 87.9332 131.108 88.2428C132.798 88.5361 134.573 88.4709 136.246 88.1287C137.987 87.7703 140.039 87.2489 141.039 85.7336C142.159 84.0391 141.401 81.8394 139.694 80.7641V80.7478Z" fill="#FFBB97"/>
<path d="M59.8877 69.7172C59.4566 68.7233 58.6118 68.0552 57.6809 67.5175C56.1465 66.6377 54.319 66.4422 52.5605 66.5073C51.6467 66.5399 50.733 66.6866 49.8192 66.8495C48.8882 67.0287 47.8538 67.1591 46.9918 67.5501C45.6988 68.1367 45.0091 69.4728 45.4919 70.7925C45.6643 71.2487 45.9401 71.6724 46.2849 72.0308C46.3884 72.2752 46.5091 72.5033 46.6815 72.6989C47.3538 73.4647 48.2676 73.7254 49.233 74.0023C52.4743 74.8985 56.8361 75.6154 59.3187 72.7803C60.0601 71.9331 60.3531 70.7437 59.9049 69.7009L59.8877 69.7172Z" fill="#FFBB97"/>
</svg>
