<svg width="117" height="117" viewBox="0 0 117 117" fill="none" xmlns="http://www.w3.org/2000/svg">
<path d="M89.2523 31.1107C86.3661 30.5716 83.2903 31.2042 80.5004 31.972C76.1509 33.1784 72.0782 35.2643 68.5207 38.0225C69.3592 35.7948 69.9504 33.4789 70.2525 31.1221C70.7969 26.905 70.8672 21.8068 67.9247 18.3903C65.2565 15.2889 60.4916 14.5758 56.7491 15.8936C52.5806 17.3534 49.5528 20.9491 47.6847 24.8335C45.8916 28.5477 44.9411 32.6414 44.8614 36.7635C43.0213 34.0962 40.9536 31.5949 38.2488 29.7501C35.1372 27.6207 30.9339 26.5603 27.2699 27.6942C23.544 28.8407 21.0668 32.13 20.4151 35.9011C19.7367 39.8261 20.7181 43.786 22.9356 47.0668C24.7161 49.7108 27.0402 51.8561 29.5271 53.8036C23.9655 54.9707 18.8152 57.39 16.5086 63.075C15.1541 66.4089 15.1517 70.3247 17.473 73.2453C20.1673 76.6319 24.9152 77.4356 28.9597 76.5208C31.8059 75.8706 34.296 74.3637 36.5565 72.5389C35.8943 73.972 35.3241 75.4444 34.8855 76.9447C33.9617 78.9445 33.3447 81.0559 33.2418 83.2977C33.0317 87.9339 35.1454 92.6949 39.7261 94.3688C40.9859 94.8308 42.2892 95.0483 43.5892 95.0598C44.8205 95.2727 46.0991 95.2273 47.3527 94.8384C48.3993 94.5113 49.3273 93.9986 50.1443 93.3537C51.9437 92.4303 53.3788 91.0359 54.5176 89.4085C57.0745 86.1771 58.4904 82.1496 59.301 78.1135C59.5085 77.093 59.6665 76.0666 59.8244 75.0401C62.2718 78.4191 65.0419 81.5771 68.1377 84.3392C72.5885 88.3283 78.2374 91.4524 84.3957 90.5989C89.6206 89.8686 93.6971 86.1294 94.6103 80.891C95.4945 75.8425 93.7991 70.586 90.3405 66.8555C88.5346 64.9075 86.3906 63.374 84.0681 62.1515C84.8153 61.9856 85.5562 61.7889 86.2707 61.5264C91.1711 59.7942 94.9092 56.0887 96.7233 51.2308C98.4784 46.5109 98.2245 41.011 95.8554 36.5476C94.4606 33.9118 92.2788 31.6727 89.2473 31.102L89.2523 31.1107ZM82.4819 64.9841C83.2539 65.3813 83.9694 65.8804 84.6355 66.4542C84.3644 66.5646 84.1222 66.7852 83.9894 67.0351C83.5755 66.5582 83.1566 66.0726 82.713 65.6243C82.5747 65.4848 82.4217 65.3999 82.2528 65.3473C82.3541 65.2426 82.418 65.1134 82.4732 64.9891L82.4819 64.9841ZM80.876 65.6226C80.9457 65.6632 81.0226 65.6765 81.0959 65.7035C80.9231 65.8841 80.8112 66.1103 80.7763 66.3499L79.7071 64.958C80.0963 65.1721 80.4855 65.3862 80.871 65.6139L80.876 65.6226ZM81.586 69.0924C81.6027 69.2213 81.6418 69.3489 81.7081 69.4838C81.9748 70.0458 82.2242 70.6177 82.4772 71.176C82.0613 70.5155 81.5897 69.8986 81.0834 69.3018C81.2693 69.2637 81.4438 69.1861 81.5947 69.0874L81.586 69.0924ZM74.5936 61.7211C74.7215 61.7627 74.8531 61.7906 74.9811 61.8322C74.8992 62.1104 74.913 62.4143 75.1026 62.6627C75.1799 62.7567 75.2486 62.8556 75.3259 62.9495C75.3299 63.0164 75.3389 63.0921 75.3516 63.154C74.7198 62.7798 74.0794 62.4105 73.4353 62.0549C73.8281 61.9552 74.2158 61.8468 74.5986 61.7298L74.5936 61.7211ZM78.4774 67.908C78.3302 67.993 78.2066 68.099 78.098 68.231C77.6181 67.6998 77.1383 67.1686 76.6584 66.6374C77.2741 67.0439 77.8776 67.4692 78.4724 67.8994L78.4774 67.908ZM78.7078 71.7472C78.9088 72.0353 79.2134 72.1828 79.5322 72.195C79.6279 72.5208 79.7236 72.8466 79.8194 73.1724C79.9535 73.7647 80.0739 74.3533 80.208 74.9456C79.4711 73.7892 78.7291 72.624 77.9921 71.4676C78.2237 71.6687 78.4796 71.7519 78.7078 71.7472ZM75.0116 68.6851L76.099 69.7085C75.9341 69.7229 75.7718 69.7819 75.6196 69.8582C75.4169 69.4672 75.2142 69.0761 75.0029 68.6901L75.0116 68.6851ZM39.9812 83.6906C40.215 83.5556 40.4125 83.3377 40.5127 82.9912C40.5323 82.9452 40.5469 82.8906 40.5579 82.8496C40.5596 82.9525 40.5836 83.0541 40.6113 83.1421L40.5545 84.5836C40.3795 84.2805 40.1822 83.9787 39.9848 83.677L39.9812 83.6906ZM37.0713 83.1305C37.0493 84.0324 37.1611 84.9262 37.3919 85.786C37.4128 86.282 37.5129 86.7554 37.6526 87.2174C36.9445 85.5709 36.7276 83.6754 36.8916 81.7794C36.8986 81.6714 36.9279 81.5621 36.9348 81.4542C37.1175 81.8106 37.4894 82.0347 37.8852 82.0602C37.4441 82.1763 37.0898 82.5425 37.0713 83.1305ZM40.5254 90.5933C41.9215 91.3115 43.4997 91.4049 44.9977 91.0596C45.0204 91.1389 45.0481 91.2268 45.0708 91.3061C45.3199 92.0976 46.3808 92.455 46.9819 91.7962C47.4818 91.242 47.948 90.6496 48.3596 90.0424C48.8554 90.5413 49.8302 90.5097 50.1781 89.8123C50.4818 89.1982 50.7581 88.5768 51.0157 87.9431C51.2656 87.7758 51.514 87.5861 51.7388 87.3755C51.1143 88.9138 50.2449 90.328 49.0043 91.3791C46.5314 92.5759 43.58 92.444 41.0956 91.0609C40.5858 90.7779 40.1266 90.4425 39.7107 90.0822C39.9683 90.2683 40.2295 90.4408 40.5204 90.5846L40.5254 90.5933ZM48.7344 58.8916C49.1156 58.1519 49.4918 57.4035 49.8867 56.6675L49.2626 59.4065C49.1091 59.7607 48.947 60.1198 48.7848 60.479C48.8406 59.9157 48.8358 59.3873 48.7207 58.8879L48.7344 58.8916ZM62.9258 75.4319C61.9839 74.2205 61.1027 72.9742 60.2597 71.6941C60.274 71.5589 60.2933 71.4323 60.3126 71.3057C60.9082 72.1973 61.5211 73.079 62.155 73.9369C62.4004 74.4419 62.6631 74.9369 62.9345 75.4269L62.9258 75.4319ZM92.566 78.6303C92.4476 83.2251 89.7086 87.0811 85.1502 88.1657C81.5595 89.0263 78.0291 88.1317 74.876 86.4303C76.7079 87.2432 78.6417 87.8126 80.6323 88.0605C82.5237 88.2964 84.4569 88.1849 86.2347 87.4241C87.2869 86.9666 88.1919 86.2941 88.9622 85.4683C90.6149 84.1908 91.6457 82.2562 91.8586 80.2049C92.1365 79.3863 92.3648 78.5617 92.5484 77.7398C92.5557 77.7124 92.563 77.6851 92.5654 77.6491C92.5805 77.9753 92.5819 78.2978 92.5747 78.6253L92.566 78.6303ZM75.3764 41.6969C75.0782 41.5804 74.785 41.4726 74.4918 41.3648C74.8732 41.2254 75.2496 41.0773 75.631 40.9379C75.4422 41.1509 75.3603 41.4291 75.3764 41.6969ZM88.6435 37.0163C88.3153 36.8478 88.0081 36.6557 87.7255 36.4263C88.4881 36.6672 89.2339 36.9988 89.9303 37.405C89.916 37.5402 89.9377 37.6779 89.983 37.8364C90.0094 37.902 90.0221 37.964 90.0484 38.0296C89.7542 37.9801 89.448 38.0298 89.1859 38.2158C89.3167 37.7823 89.2029 37.3053 88.6485 37.025L88.6435 37.0163ZM85.583 33.2753C86.1037 33.2172 86.6134 33.2001 87.1021 33.2066C86.9183 33.4282 86.7432 33.6448 86.563 33.8527C85.1977 33.6479 83.8185 33.659 82.435 33.8227C83.4733 33.5812 84.523 33.3793 85.5744 33.2803L85.583 33.2753ZM88.0591 44.2241C88.0475 44.404 88.0546 44.5963 88.043 44.7762C88.017 44.7912 87.981 44.7889 87.9551 44.8039C87.6443 44.9256 87.3335 45.0472 87.0177 45.1603L88.0591 44.2241ZM80.2508 44.1597C79.3315 43.5473 78.3455 43.0196 77.3772 42.5625C77.8379 42.4004 78.2986 42.2384 78.7593 42.0763C78.4614 42.8603 79.0451 43.8512 80.0734 43.5924C80.6161 43.4523 81.1587 43.3122 81.7014 43.1721C81.2241 43.5054 80.7381 43.8437 80.2558 44.1683L80.2508 44.1597ZM89.5437 48.3554C89.3442 48.6899 89.1311 49.0208 88.8993 49.3394C88.543 49.8222 88.1494 50.2804 87.7271 50.709C87.6061 50.5594 87.4418 50.4349 87.2406 50.3663L88.9099 48.9176C89.5573 48.359 89.1936 47.449 88.5731 47.1144L88.6511 47.0694C89.1109 47.2658 89.7355 47.1476 90.0795 46.6835C89.9208 47.2485 89.7484 47.8099 89.5487 48.364L89.5437 48.3554ZM86.5785 39.5595C86.2254 39.6479 85.8859 39.74 85.5328 39.8284C85.6874 39.7161 85.8469 39.6124 86.0015 39.5001C86.1647 39.3828 86.2769 39.2372 86.3618 39.0842C86.4294 39.2414 86.5194 39.3973 86.5785 39.5595ZM93.3122 47.3227C93.3015 47.1442 93.2511 46.9769 93.1661 46.8297C93.4597 45.8981 93.6763 44.9533 93.8245 43.9901C93.8109 45.1065 93.605 46.2299 93.3122 47.3227ZM94.1908 38.2245C93.9662 37.9154 93.7206 37.63 93.4613 37.3409C93.3769 37.0548 93.2925 36.7686 93.1945 36.4788C93.5728 37.034 93.9078 37.6143 94.1995 38.2195L94.1908 38.2245Z" fill="#FFCB0F"/>
<path d="M69.2744 40.4279C69.23 40.211 69.0964 39.9995 68.8638 39.8567C65.5357 37.8522 61.9381 36.061 57.9975 35.7958C54.4801 35.5633 50.9536 36.3754 47.8765 38.1057C41.8363 41.5237 38.4538 48.465 39.2112 55.3369C40.0408 62.8138 46.0806 69.315 53.1653 71.5061C56.9499 72.6813 60.4887 71.8506 63.9552 70.1148C67.439 68.369 70.409 65.973 72.3921 62.5879C75.4154 57.4245 75.3965 51.2116 72.8719 46.0989C72.8469 46.0556 72.8392 46.0023 72.8179 45.9454C72.0037 43.8751 70.7911 42.0348 69.2694 40.4192L69.2744 40.4279ZM51.3878 48.0874C51.46 47.8725 51.5422 47.6749 51.6145 47.46C51.7055 47.5576 51.7964 47.6551 51.8961 47.7477C51.8038 47.928 51.7166 48.1169 51.6344 48.3145C51.5657 48.2156 51.4848 48.1353 51.3965 48.0824L51.3878 48.0874ZM63.985 47.8465C63.985 47.8465 63.9874 47.8105 63.986 47.7882L64.151 48.074C64.2637 48.3091 64.3764 48.5443 64.4754 48.7758C64.4235 48.8058 64.3765 48.8445 64.3345 48.8918C64.3049 48.9205 64.2802 48.9578 64.2556 48.9951C64.1695 48.606 64.0798 48.2306 63.9937 47.8415L63.985 47.8465ZM66.9586 46.2567C67.1775 46.3959 67.3914 46.5264 67.619 46.6606C68.0228 47.64 68.3722 48.6853 68.6611 49.7656C68.3034 49.1061 67.9111 48.4665 67.5151 47.8407C67.3577 47.308 67.1779 46.7767 66.9635 46.2654L66.9586 46.2567ZM61.6363 60.2184C61.8278 60.0501 62.0007 59.8694 62.1685 59.6801L62.4025 60.1455C62.1675 60.5583 61.9324 60.9712 61.66 61.3594C61.6596 60.9786 61.6591 60.5978 61.645 60.2134L61.6363 60.2184ZM68.3514 55.4292C68.5387 55.7136 68.7297 55.9844 68.9293 56.2502C68.6862 57.349 68.2654 58.4002 67.6644 59.3592C68.0171 58.0701 68.2519 56.7568 68.3514 55.4292ZM50.4179 41.7076C50.4179 41.7076 50.5086 41.7245 50.5705 41.7118C50.6015 41.7055 50.6325 41.6992 50.6548 41.6978C50.5909 41.8271 50.5307 41.9427 50.4667 42.072C50.4494 42.082 50.4321 42.092 50.4147 42.102C49.8781 42.1925 49.4791 42.5614 49.1687 43.0639C49.0032 43.2172 48.8464 43.3655 48.6858 43.5275C48.4669 43.3883 48.1814 43.3337 47.9262 43.4118C48.2965 43.0132 48.6955 42.6443 49.1218 42.2827C49.5539 42.091 49.9809 41.8906 50.413 41.6989L50.4179 41.7076ZM56.0716 61.7799C56.2639 62.073 56.4686 62.3475 56.6905 62.6119C56.6849 62.7422 56.6556 62.8515 56.6186 62.9075C56.547 62.9835 56.4464 62.9491 56.3145 62.8406C56.2397 62.4911 56.16 62.133 56.0766 61.7886L56.0716 61.7799ZM60.2827 67.3738C60.7054 67.326 61.1232 67.2696 61.5346 67.1822C60.9837 67.4079 60.4127 67.599 59.8491 67.7627C59.9986 67.6417 60.1431 67.5121 60.2827 67.3738ZM58.8167 64.8946C59.1931 64.7466 59.4569 64.3634 59.2985 63.8891C59.6019 63.7947 59.8527 63.5691 59.8909 63.2352C59.9218 62.9287 59.939 62.6186 59.9613 62.3171C60.0432 62.339 60.1252 62.361 60.2145 62.3556C60.5701 62.8316 61.0243 63.1582 61.6546 63.21C61.8209 63.218 61.9721 63.1999 62.117 63.1509C61.8146 63.4871 61.4972 63.7974 61.1325 64.0657C60.3944 64.6073 59.6079 64.8651 58.8167 64.8946ZM66.8951 40.6469C66.7959 40.9351 66.847 41.2635 67.1396 41.5103C67.0853 41.5763 67.0497 41.6546 67.0277 41.7366C64.885 39.9253 62.5442 38.4708 59.8321 37.7734C59.7861 37.7538 59.7402 37.7341 59.6905 37.7281C62.2343 38.234 64.6183 39.3633 66.8865 40.6519L66.8951 40.6469ZM44.1613 52.7907C44.4823 53.2867 45.2706 53.432 45.5669 52.8453C45.589 53.3636 45.6385 53.8893 45.714 54.4C45.0941 53.9265 44.0099 54.4485 44.3983 55.3212C44.7667 56.1593 45.1611 56.9824 45.5641 57.8005C45.3129 57.6453 45.0277 57.6714 44.8039 57.8238C44.329 56.1812 44.1192 54.4778 44.1613 52.7907ZM42.7 60.8398C42.7 60.8398 42.715 60.8657 42.725 60.883C43.0047 61.2874 43.5913 61.2835 43.9524 61.0289C45.0348 63.1637 46.3447 65.1325 47.8858 66.9217C45.7574 65.2753 43.9508 63.1661 42.7 60.8398ZM65.6157 67.2508C62.6053 69.1967 58.9093 70.9149 55.2424 70.2838C53.8845 70.0517 52.554 69.6074 51.2812 69.0028C51.3282 68.9641 51.3565 68.9132 51.4034 68.8745C52.0412 69.1991 52.7072 69.4727 53.4053 69.6817C55.7165 70.3449 58.1178 70.044 60.3683 69.322C64.1621 68.1132 67.6874 65.9392 70.2004 62.8718C68.9826 64.6026 67.4313 66.0756 65.6157 67.2508ZM70.1898 59.9334C70.3872 59.4153 70.5486 58.8949 70.6777 58.3585C70.761 58.4028 70.853 58.4421 70.9436 58.459C70.7225 58.9561 70.4792 59.4546 70.1898 59.9334ZM72.0275 49.4963C71.6773 48.2898 71.1772 47.1236 70.5422 46.0237C70.6384 45.9104 70.706 45.7675 70.7053 45.6062C70.8353 45.8314 70.9776 46.0379 71.1076 46.2631C71.5377 47.308 71.8402 48.392 72.0275 49.4963ZM38.2156 47.6325C40.3388 48.6699 42.4286 49.7497 44.4902 50.8804C44.7128 51.0059 44.954 51.1437 45.1903 51.2729C45.2745 51.2589 45.3602 51.2672 45.4558 51.2928C47.09 51.7234 48.7761 51.8238 50.4502 52.0235C50.4412 51.9479 50.4099 51.8736 50.3426 51.797C43.8985 44.4555 35.8102 38.9061 27.7805 33.4384C27.2107 33.0515 26.526 33.8856 27.1008 34.2812C34.7236 39.4642 42.4287 44.7498 48.6907 51.596C47.1146 51.3859 45.5814 50.2504 44.2622 49.5455C42.2616 48.4604 40.2378 47.435 38.1929 46.4332C34.0262 44.4163 29.7674 42.5797 25.4436 40.9307C24.7925 40.683 24.3454 41.6686 24.9965 41.9163C29.4805 43.6229 33.8874 45.5357 38.1983 47.6425L38.2156 47.6325ZM43.9258 53.9428C42.8888 54.2067 41.8581 54.5015 40.8402 54.8583C38.3968 55.7263 36.1484 56.932 33.8291 58.0748C29.2027 60.3417 24.0419 61.2428 19.5095 63.7326C18.9156 64.0639 19.2897 65.0719 19.9059 64.7392C24.3553 62.2858 29.4356 61.385 33.9904 59.1941C36.2418 58.1137 38.4095 56.9083 40.7586 56.037C42.6173 55.3565 44.5214 54.8345 46.4609 54.4537C41.0989 59.7665 35.3157 64.6297 29.1582 69.0046C28.5956 69.4102 29.2259 70.2818 29.7971 69.8712C36.2687 65.2803 42.331 60.1406 47.9384 54.5129C46.5945 54.3651 45.2469 54.2309 43.9208 53.9342L43.9258 53.9428ZM50.2511 59.6786C46.2326 67.8184 42.2105 75.9718 38.192 84.1116C37.8847 84.7394 38.8653 85.1778 39.1776 84.5587C43.1961 76.4189 47.2182 68.2655 51.2367 60.1257C51.544 59.498 50.5634 59.0595 50.2511 59.6786ZM55.2774 60.8644C51.9938 68.857 49.4582 77.1452 47.7172 85.6097C47.5788 86.2901 48.6426 86.4726 48.781 85.7923C50.505 77.4184 53.01 69.2171 56.263 61.3115C56.5293 60.6727 55.5437 60.2256 55.2774 60.8644ZM80.8679 81.9085C74.5785 75.8748 69.4577 68.7854 64.3756 61.743C63.97 61.1804 63.0897 61.8157 63.509 62.3819C68.6497 69.5059 73.8315 76.641 80.1969 82.7462C80.6964 83.2315 81.3761 82.3887 80.8766 81.9035L80.8679 81.9085ZM84.6428 78.6667C78.6414 73.252 72.8548 67.6093 67.3053 61.7373C66.8318 61.2371 65.9515 61.8724 66.4387 62.3763C72.0505 68.3162 77.9044 74.0355 83.9718 79.5045C84.4836 79.9711 85.1633 79.1283 84.6515 78.6617L84.6428 78.6667ZM84.1571 69.6056L71.1778 60.6447C70.603 60.2491 69.9233 61.0919 70.4981 61.4875C74.8217 64.4761 79.1539 67.4597 83.4775 70.4483C84.0523 70.8439 84.7319 70.0012 84.1571 69.6056ZM87.1183 49.3746C84.3474 51.0552 81.6129 52.8187 78.6343 54.0996C75.6507 55.3719 72.5213 56.2317 69.3046 56.6802C68.6203 56.775 68.7256 57.8574 69.4185 57.7576C72.7196 57.2951 75.9641 56.4149 79.0307 55.1063C82.1059 53.7927 84.9184 51.9841 87.7623 50.2498C88.3498 49.8875 87.7109 49.0209 87.1233 49.3832L87.1183 49.3746ZM87.3765 41.0617C81.4997 44.9628 75.3219 48.4025 68.9038 51.346C68.2712 51.6303 68.659 52.642 69.3002 52.3526C75.8013 49.3728 82.062 45.8968 88.0205 41.937C88.598 41.5574 87.9628 40.6771 87.3815 41.0704L87.3765 41.0617ZM64.7974 22.1935C63.9471 26.2408 63.0833 30.2845 62.233 34.3319C61.4932 37.8305 60.7834 41.3811 61.1467 44.9703C61.2192 45.6559 62.2929 45.5556 62.2241 44.8564C61.8608 41.2671 62.6166 37.7362 63.3614 34.2462C64.1946 30.2895 65.0366 26.3277 65.8699 22.371C66.0169 21.6857 64.9494 21.5168 64.806 22.1885L64.7974 22.1935ZM59.034 21.491C56.6113 28.6748 54.9153 36.0972 53.9963 43.6253C53.9125 44.3203 54.98 44.4892 55.06 43.8079C55.9622 36.3704 57.6189 29.04 60.0196 21.9381C60.24 21.2798 59.2544 20.8327 59.034 21.491ZM81.7803 36.9488C76.7707 40.8919 71.5865 44.6125 66.2549 48.1179C65.6773 48.4975 66.3076 49.3692 66.8938 48.9846C72.2304 45.4878 77.4096 41.7585 82.4193 37.8155C82.9668 37.3839 82.3279 36.5172 81.7803 36.9488Z" fill="#F64E33"/>
<path d="M50.8402 51.5791C50.8248 51.4725 50.7785 51.3722 50.7098 51.2733C50.6548 51.178 50.5702 51.1114 50.4682 51.0548C50.3836 50.9882 50.278 50.9453 50.17 50.9383L49.9455 50.9294C49.7942 50.9474 49.663 51.0001 49.5294 51.0888L49.3725 51.2371C49.2763 51.3504 49.2174 51.4883 49.1944 51.6285C49.1875 51.7365 49.1805 51.8444 49.1822 51.9474C49.1799 51.9834 49.1862 52.0144 49.1926 52.0453C49.1966 52.1123 49.2229 52.1779 49.2406 52.2485C49.2583 52.3192 49.276 52.3898 49.2936 52.4604C49.3086 52.4864 49.3287 52.521 49.335 52.552C49.385 52.6386 49.44 52.7338 49.49 52.8204C49.56 52.9417 49.6683 53.0293 49.7593 53.1269C49.8489 53.2021 49.9459 53.2501 50.0502 53.2707C50.1558 53.3137 50.2687 53.3292 50.384 53.3089C50.4956 53.3022 50.6008 53.2645 50.7048 53.2045C50.805 53.1582 50.8953 53.0945 50.9569 53.0012L51.0715 52.8196C51.1304 52.6817 51.162 52.5364 51.1439 52.3852L51.0859 52.1646C51.0496 52.0817 51.0009 52.0174 50.9559 51.9395C50.9409 51.9135 50.9259 51.8875 50.9109 51.8615C50.9109 51.8615 50.8969 51.7773 50.8942 51.7326L50.8946 51.8132L50.8846 51.7959C50.8842 51.7153 50.8975 51.6383 50.8798 51.5677L50.8402 51.5791Z" fill="black"/>
<path d="M60.561 44.9157C60.4763 44.8491 60.3707 44.8061 60.2578 44.7905L60.0332 44.7816C59.882 44.7996 59.7508 44.8523 59.6172 44.941L59.4603 45.0893C59.3641 45.2026 59.3052 45.3405 59.2822 45.4808L59.1912 46.203C59.1669 46.321 59.1736 46.4326 59.2113 46.5379C59.2266 46.6445 59.273 46.7447 59.3416 46.8437C59.3966 46.9389 59.4813 47.0055 59.5832 47.0621C59.6679 47.1287 59.7735 47.1717 59.8864 47.1873L60.111 47.1962C60.2622 47.1782 60.3935 47.1255 60.527 47.0368L60.6839 46.8886C60.7801 46.7753 60.8391 46.6373 60.862 46.497C60.8969 46.2575 60.9181 46.0143 60.953 45.7747C60.9773 45.6568 60.9706 45.5452 60.9329 45.4399C60.9176 45.3333 60.8712 45.2331 60.8026 45.1341C60.7476 45.0389 60.6629 44.9723 60.566 44.9243L60.561 44.9157Z" fill="black"/>
<path d="M64.6247 48.8746C64.7454 52.3036 62.755 54.8962 60.1081 56.8516C58.8211 57.8025 57.3838 58.7131 55.7888 59.0105C54.1405 59.3155 52.5346 58.8339 50.977 58.336C49.9534 58.0032 49.2483 59.5419 50.2805 59.8697C52.1213 60.4582 54.0155 61.0389 55.9699 60.6841C57.8761 60.3457 59.5722 59.3434 61.1213 58.2065C64.2874 55.8705 66.4652 52.7425 66.3207 48.6921C66.2823 47.6058 64.6086 47.7869 64.642 48.8646L64.6247 48.8746Z" fill="black"/>
</svg>
