<svg width="63" height="52" viewBox="0 0 63 52" fill="none" xmlns="http://www.w3.org/2000/svg">
<path d="M61.2772 9.69876C54.6186 10.9211 47.9278 12.1435 41.2692 13.3337C40.4651 13.4945 39.6609 13.6231 38.8567 13.784C38.0204 13.9448 37.0553 14.2987 36.3798 13.6232C35.8973 13.1406 35.5757 12.3365 35.2218 11.7575C34.7715 10.9855 34.289 10.2134 33.8386 9.40926C32.0694 6.41771 30.3324 3.42614 28.5632 0.434592C28.2415 -0.112251 27.3087 -0.176585 26.987 0.434592C24.5745 5.19533 22.8696 10.2456 21.8724 15.4888L0.642087 23.981C-0.0977582 24.2705 -0.322929 25.525 0.642087 25.718C7.01119 27.1012 13.509 27.7767 20.0389 27.7767C16.7257 35.2716 13.8306 42.9918 11.4824 50.8406C11.2894 51.484 11.9328 52.1595 12.6083 51.9665C17.8515 50.2938 21.1648 45.8225 24.5423 41.7694C25.4108 40.7079 26.3115 39.6786 27.2765 38.6814C27.8877 38.0702 28.5632 37.2661 29.4961 37.1696C30.3002 37.0731 31.2009 37.4912 31.9086 37.7807C34.675 38.8744 37.1519 40.5792 39.7574 41.9624C42.5238 43.4421 45.5153 44.568 48.6999 44.2142C49.2467 44.1498 49.7936 43.6673 49.5684 43.0561C47.6062 37.5234 45.1293 32.1836 42.2021 27.069C49.9544 23.3698 56.806 17.9336 62.1458 11.2106C62.7248 10.5029 62.2101 9.53792 61.2772 9.69876Z" fill="#FFCB0F"/>
</svg>
